# xmcd
#
# Track frame offsets: 
#        150
#        15503
#        41902
#        65003
#
# Disc length: 1157 seconds
#
# Revision: 0
# Processed by: cddbd v1.5.2PL0 Copyright (c) Steve Scherf et al.
# Submitted via: ExactAudioCopy v0.99pb5
#
DISCID=30048304
DTITLE=Scooter Vs. Status Quo - Jump That Rock (Whatever You Want) [Si
DTITLE=ngle]
DYEAR=2008
DGENRE=techno
TTITLE0=Jump That Rock (Whatever You Want) (Radio Edit)
TTITLE1=Jump That Rock (Whatever You Want) (`The Telecaster' Club Mix)
TTITLE2=Jump That Rock (Whatever You Want) (Extended Mix)
TTITLE3=The Hi Hat Song
EXTD=
EXTT0=
EXTT1=
EXTT2=
EXTT3=
PLAYORDER=
